#!OML:ASF E:/inclinewalkrobotboard/Project1/Captureday1/Session1/subject1.ASF
:FULLY-SPECIFIED
:DEGREES
88
root 0 0 0 -5.250068878633572 -4.434993272858033 1.4494492298251838
lowerback 13.58260927146847 1.3342134815316369 -1.7039867785841045
upperback 2.5322650427038482 1.5785389539193488 0.2003915723751991
thorax -4.82629816764259 0.8134319050160357 0.9950009887398532
lowerneck -15.694612788182166 -3.4919905489976095 -2.466747580386866
upperneck 17.075365380339058 -4.546303752417599 1.8181966283068876
head 7.9203091080290635 -2.14467874701579 0.457309401997423
rclavicle -2.9096982208191372E-15 2.39790270670528E-15
rhumerus -30.596818930259207 -19.457367615914247 -81.81098673827434
rradius 25.679132177131706
rwrist 12.573021111376104
rhand -20.052485808215184 27.426457594255112
rfingers 7.125019999999997
rthumb 6.312613208101059 -2.6381739297662605
lclavicle -7.015152076655389E-15 1.7585369721330844E-15
lhumerus -31.788917339560047 2.44200589305919 83.62813329351302
lradius 22.799003467663745
lwrist 3.9963192174929034
lhand -27.964301351059916 26.92077097294552
lfingers 7.125020000000048
lthumb -1.3708715475704416 56.92516099897577
rfemur -19.047912539669117 0.32577298230703855 18.892995539102213
rtibia 61.20525144225352
rfoot 6.411110745034451 -4.061287615040403
rtoes 9.830861024402221
lfemur -4.043072205621504 -4.340747509806829 -24.00377235731635
ltibia 18.95453412002069
lfoot -13.065051038033447 1.023432498863949
ltoes -0.5218437668572662
89
root 0 0 0 -3.555190811071271 -2.5486319185447783 3.8112883588430804
lowerback 12.935881238575206 0.19531574132481244 -4.201566826307746
upperback 2.1627192015470715 -0.27616036083568085 0.17362783174983376
thorax -4.8451936644079625 -0.027837168698980452 2.611060273602444
lowerneck -14.725508109274514 -2.8381188749089845 -2.765697851460442
upperneck 16.144526996428976 -3.541703688827545 2.0440277542798775
head 7.40389237210131 -1.7170263953969112 0.7227271365206266
rclavicle -5.640333878415567E-16 3.6637905008555996E-15
rhumerus -31.02071308322931 -21.452534696943225 -81.02075351185536
rradius 24.762573423558734
rwrist 12.368190737114858
rhand -19.902064460522162 26.522534231293406
rfingers 7.125020000000002
rthumb 6.456959125552972 -3.551126840523949
lclavicle 3.8756738736907136E-16 3.728698437815016E-15
lhumerus -28.227168090825668 -2.8452343506962148 83.7110280219827
lradius 29.07513995018176
lwrist 7.433813315820503
lhand -28.33321930924655 25.99830972459501
lfingers 7.125020000000031
lthumb -1.7246132400248317 55.99767550675628
rfemur -24.607570795901445 -0.5463191699701984 15.531944667246798
rtibia 58.345735526830794
rfoot 5.461009245163346 -5.301789111573248
rtoes 8.351246321019252
lfemur 5.486632031083679 -5.091380793173869 -27.986026801259584
ltibia 18.165036533415748
lfoot -16.72758556477982 0.7216776237230076
ltoes 0.2686062716661546
90
root 0 0 0 -2.264966225959115 -1.4834682405997044 3.9746242864327104
lowerback 11.439594003685244 -0.409247740914655 -4.600458900368473
upperback 1.3941281809462172 -1.1418182465488769 0.2051790581790035
thorax -4.8171796694274684 -0.45691564463354495 2.977950204689392
lowerneck -15.71140820411912 -2.6369649782037885 -2.943064045714307
upperneck 12.29956969094201 -3.115799209974922 1.8365783666208502
head 6.163341528112267 -1.587469897280725 0.7571550986836835
rclavicle 4.909712294486165E-16 2.8139803606729255E-15
rhumerus -31.54438160445656 -22.447673126613928 -80.72375298148943
rradius 23.947013763755002
rwrist 11.980137038663084
rhand -19.82549279774274 26.18155409245327
rfingers 7.125020000000003
rthumb 6.531514057232725 -3.885251291966995
lclavicle 4.621436052980706E-15 2.8956098158188678E-15
lhumerus -27.129923065482075 -5.001663965765018 83.63954674664123
lradius 31.76148192555659
lwrist 8.649012561132722
lhand -28.23022294385513 25.27273849921186
lfingers 7.125020000000021
lthumb -1.630945060544601 55.22710938709788
rfemur -28.301247210703846 0.5521069822075702 16.652941087610344
rtibia 52.798868676905656
rfoot 2.1381054039239595 -7.190359892925018
rtoes 6.551933990012667
lfemur 7.97101924855273 -5.566439405766248 -28.593220227332367
ltibia 17.224498899847138
lfoot -16.917123195716997 0.4709930156315911
ltoes 0.3209844346040569
91
root 0 0 0 -1.420096736126685 -0.8158067377898346 3.693561596472016
lowerback 10.417660258348302 -0.7230329067241678 -4.640609791170314
upperback 0.8831938743039842 -1.5501081278805764 0.4016418662746476
thorax -4.772287355337876 -0.6590903052072963 3.2498161257648146
lowerneck -15.739597865077974 -2.613696808607884 -3.000657172418351
upperneck 11.431952974410468 -3.04105696776192 1.8527960566332489
head 5.868065153808743 -1.5733902181424066 0.7931973082497383
rclavicle 2.7107971098450513E-16 1.55987037585281E-15
rhumerus -32.001220255271896 -23.77483510509085 -80.41872672063778
rradius 23.098165755985413
rwrist 11.886381883842816
rhand -19.782561662281992 25.657166880198687
rfingers 7.125020000000003
rthumb 6.573170509486741 -4.415457063972326
lclavicle 4.752902224788236E-15 1.84680454741698E-15
lhumerus -26.675305310442653 -5.561610316541024 83.4370011925456
lradius 32.533101404494936
lwrist 8.858776848350445
lhand -28.197989946932125 24.784820926613918
lfingers 7.125020000000014
lthumb -1.606850798232534 54.727993385217104
rfemur -31.701700483560522 2.762271849862648 20.230572141998017
rtibia 45.14827155851488
rfoot -3.852140372697046 -9.986834726727675
rtoes 3.5254570640953973
lfemur 9.66129355424177 -5.995878177215458 -28.651087381603126
ltibia 16.52642010426969
lfoot -16.513292428101195 0.11009450535304666
ltoes -0.3867994510709458
92
root 0 0 0 -0.9266309460932554 -0.09604961219167008 3.15340075241016
lowerback 9.865005585672785 -0.9778142303865719 -4.541343365028734
upperback 0.6228082895288845 -1.8378043091137808 0.7791298438233532
thorax -4.713063880970445 -0.7978968626014749 3.616884825572656
lowerneck -15.422682371744473 -2.70091419904302 -3.060459477792049
upperneck 12.625738136736572 -3.1771385533079926 2.0000289254840866
head 6.288945600723297 -1.6279925892162321 0.8332877965156784
rclavicle 8.998961981514242E-16 1.127835392176638E-15
rhumerus -32.289677743502146 -24.76030600017529 -80.13380856838215
rradius 22.40845838224506
rwrist 11.616032067885293
rhand -19.730485612757562 25.32319943287571
rfingers 7.125020000000003
rthumb 6.623790056292255 -4.747427876981799
lclavicle 5.632243695431783E-15 1.7918599582245063E-15
lhumerus -26.411668001728806 -5.528609470277578 83.10076345705639
lradius 32.62077762025971
lwrist 8.806743814768366
lhand -28.254693463956603 24.635117630957605
lfingers 7.125020000000014
lthumb -1.6635972783427952 54.58436618050887
rfemur -30.76609726143079 4.280244702502582 21.29980063999419
rtibia 36.66044649538273
rfoot -7.347295300789337 -11.31472615977903
rtoes 0.857350202037922
lfemur 10.7382944591618 -6.302541381533654 -28.38736781742928
ltibia 16.43226458870601
lfoot -15.890627093577823 -0.2849165719150899
ltoes -1.6066404916845265
93
root 0 0 0 -0.8007111697423768 0.8423613615936278 2.139460485055221
lowerback 9.297111277071208 -1.3137433856498966 -4.186202286277705
upperback 0.25029162061846044 -2.147414725308008 1.4920398176744256
thorax -4.76362431972069 -0.9510100461447526 4.195232649550611
lowerneck -15.943404720021636 -2.9032523993403343 -3.192511862130277
upperneck 16.26292599975186 -3.476377491448072 1.916160345321866
head 7.727676220922117 -1.7463885978229787 0.7596546444976189
rclavicle 1.661011294623983E-15 1.0808709689743457E-15
rhumerus -32.856384304839786 -26.200336147313408 -79.60649760051355
rradius 21.052371988848208
rwrist 10.979398614675969
rhand -19.48526833442266 24.839698190939657
rfingers 7.125020000000006
rthumb 6.860071086037418 -5.207129428016508
lclavicle 6.646280291815722E-15 2.1096363698148172E-15
lhumerus -26.37449818116635 -5.03879357324711 82.70421766489189
lradius 32.14794536918071
lwrist 8.534008968192486
lhand -28.366286849893953 24.817403964755254
lfingers 7.12502000000002
lthumb -1.767375383907714 54.78091469071184
rfemur -28.01214882359623 5.236337695227533 21.904943636541404
rtibia 30.5512984500564
rfoot -9.087775257631257 -11.2393732866156
rtoes -0.4488699271461256
lfemur 12.246823783135934 -6.365269947036963 -27.51979266565558
ltibia 18.29469918907624
lfoot -14.284934169212356 -1.5124598007155527
ltoes -5.014279763653434
94
root 0 0 0 -1.146135274627743 0.9642185447835612 1.412811798172918
lowerback 8.371957323290241 -1.4344382102041484 -3.6352213587927658
upperback -0.18197190922437356 -2.201598752832984 1.829328829099353
thorax -4.7223412811902135 -0.9881455408668429 4.2565261638167815
lowerneck -16.905116276029865 -2.885309436955445 -3.1528488408120237
upperneck 18.237276949423915 -3.4409851237847886 1.4773860024677261
head 8.546652468118612 -1.7334237446846175 0.5860021174036337
rclavicle 2.0147878013355334E-15 9.485499772687285E-16
rhumerus -33.37563128950589 -27.09365555162491 -79.28517384678618
rradius 19.898369912882963
rwrist 10.271845311576154
rhand -19.249905906272645 24.531417254046392
rfingers 7.125020000000009
rthumb 7.086805212631561 -5.489047559000653
lclavicle 6.710722352724907E-15 2.0929671506667534E-15
lhumerus -26.594861466773786 -4.684025421222664 82.6712208308097
lradius 31.763334749257268
lwrist 8.380589147165596
lhand -28.387771097076893 25.019965812950296
lfingers 7.125020000000022
lthumb -1.7819775422661053 54.99139482899906
rfemur -26.3057334302615 5.492888679227366 22.627250673314975
rtibia 29.711922160841322
rfoot -9.333559516422591 -10.574909372941594
rtoes 0.21192701897679744
lfemur 12.806476853448423 -6.099722690655769 -26.64866965358402
ltibia 21.285882289308375
lfoot -12.747483262311587 -2.7600147561326707
ltoes -7.702977877696696
95
root 0 0 0 -1.8639887362936682 0.7948361976027538 0.6636743198684751
lowerback 7.941975508894261 -1.4887716883314646 -2.8196244350042763
upperback -0.25463930582852007 -2.161487214552735 2.1089711766621715
thorax -4.583172800095648 -0.9820355881864367 4.104564755458971
lowerneck -17.27443528980498 -2.7525469392246613 -2.9490656530261528
upperneck 19.788811667680978 -3.2324081619518505 0.8910633731371091
head 9.038782665228391 -1.6530390345308432 0.35804753631663827
rclavicle 1.783000194602802E-15 7.624779167269069E-16
rhumerus -33.86396221304604 -27.60567517188456 -79.15622131331709
rradius 18.90839483922238
rwrist 9.694989475394308
rhand -19.007215555505432 24.278950067057718
rfingers 7.125020000000012
rthumb 7.321082346796247 -5.703444716121425
lclavicle 5.756679653285396E-15 1.9157804581332085E-15
lhumerus -27.010691051676176 -4.314345610233207 82.80834393965269
lradius 31.347419796864166
lwrist 8.22386300428028
lhand -28.34566663626897 25.21867989805484
lfingers 7.125020000000026
lthumb -1.7348958673184516 55.20031102767679
rfemur -23.87483372618564 5.695463444077558 23.756874319809725
rtibia 29.85671890000229
rfoot -9.614896457262272 -9.661803163133886
rtoes 1.4312889453859001
lfemur 12.225429756967888 -5.500628195913521 -25.446346447120977
ltibia 26.583304545442807
lfoot -10.278951459944475 -4.607838687875674
ltoes -9.645791274286587
